<svg width="132" height="103" viewBox="0 0 132 103" fill="none" xmlns="http://www.w3.org/2000/svg">
<g clip-path="url(#clip0_2_16)">
<path d="M116.909 93.8237C118.746 93.8237 119.741 95.1982 119.741 96.8987V100.125H118.51V97.0991C118.51 95.9867 117.965 95.011 116.822 95.011C115.718 95.011 115.16 95.9473 115.16 97.0747V100.125H113.931V97.0728C113.931 95.9492 113.373 95.011 112.241 95.011C111.099 95.011 110.59 95.9848 110.59 97.0991V100.125H109.363V96.9118C109.363 95.1982 110.33 93.8218 112.155 93.8218C113.371 93.8218 114.253 94.4473 114.563 95.3986C114.898 94.4473 115.755 93.8237 116.909 93.8237ZM105.039 99.0748C106.167 99.0748 106.788 98.086 106.788 96.9492V93.9978H108.017V97.0991C108.017 98.8744 106.95 100.275 105.039 100.275C103.152 100.275 102.082 98.8613 102.082 97.086V93.9978H103.311V96.9624C103.311 98.086 103.921 99.0748 105.039 99.0748ZM98.617 100.262C97.4866 100.262 96.6184 99.8126 96.1443 98.9006L97.0888 98.3763C97.3993 98.9868 97.8957 99.2134 98.5668 99.2134C99.2621 99.2134 99.7957 98.925 99.7957 98.3875C99.7957 97.0991 96.3079 98.0747 96.3079 95.7357C96.3079 94.6608 97.2505 93.8724 98.5798 93.8724C99.7083 93.8724 100.478 94.3967 100.863 95.1102L99.9203 95.6496C99.66 95.1102 99.1636 94.923 98.604 94.923C98.0332 94.923 97.5369 95.2226 97.5369 95.7095C97.5369 96.9623 101.025 96.0485 101.025 98.3613C101.025 99.5242 99.9091 100.262 98.617 100.262ZM90.1783 102.938H88.9476V97.0485C88.9476 95.2226 90.3512 93.8461 92.1881 93.8461C92.6096 93.8397 93.0282 93.9177 93.4195 94.0758C93.8108 94.2338 94.167 94.4687 94.4674 94.7667C94.7677 95.0647 95.0062 95.4199 95.169 95.8117C95.3318 96.2034 95.4156 96.6238 95.4156 97.0485C95.4156 98.9006 94.0881 100.275 92.2364 100.275C91.4184 100.275 90.6747 99.9119 90.1765 99.3632V102.94L90.1783 102.938ZM92.1881 99.1122C93.3184 99.1122 94.1867 98.1759 94.1867 97.0616C94.1867 95.9361 93.3184 95.0241 92.1881 95.0241C91.0465 95.0241 90.1783 95.9361 90.1783 97.0616C90.1783 98.174 91.0465 99.1122 92.1881 99.1122ZM86.09 93.9978H87.3171V100.125H86.09V93.9978ZM102.668 88.4059C93.2775 88.4059 86.1142 81.1303 86.1142 72.2761C86.1142 63.4855 93.2775 56.2081 102.668 56.2081C112.057 56.2081 119.222 63.4855 119.222 72.2761C119.222 81.1303 112.059 88.4059 102.668 88.4059ZM102.668 78.1583C106.098 78.1583 108.387 75.4897 108.387 72.3379C108.387 69.1243 106.1 66.4556 102.668 66.4556C99.2361 66.4556 96.9494 69.1243 96.9494 72.336C96.9494 75.4897 99.2361 78.1583 102.668 78.1583ZM65.6542 102.352C58.1897 102.352 52.7703 99.0186 50.002 93.0746L58.9724 88.2242C59.9354 90.2842 61.7425 92.4079 65.4739 92.4079C69.3855 92.4079 71.9753 89.9209 72.2765 85.5556C70.8301 86.829 68.5433 87.7991 65.1132 87.7991C56.7451 87.7991 50.002 81.312 50.002 72.2161C50.002 63.4237 57.1672 56.2699 66.5577 56.2699C76.1882 56.2699 83.1117 63.0004 83.1117 72.2761V84.2821C83.1117 95.1964 75.5858 102.352 65.6542 102.352ZM66.3756 77.5515C69.6272 77.5515 72.0943 75.308 72.0943 71.9727C72.0943 68.6992 69.6272 66.5156 66.3756 66.5156C63.1852 66.5156 60.6586 68.6992 60.6586 71.9727C60.6586 75.308 63.1871 77.5515 66.3756 77.5515ZM31.6224 88.4059C22.2318 88.4059 15.0685 81.1303 15.0685 72.2761C15.0685 63.4855 22.2318 56.2081 31.6224 56.2081C41.0111 56.2081 48.1763 63.4855 48.1763 72.2761C48.1763 81.1303 41.013 88.4059 31.6224 88.4059ZM31.6224 78.1583C35.0525 78.1583 37.3411 75.4897 37.3411 72.3379C37.3411 69.1243 35.0544 66.4556 31.6224 66.4556C28.1904 66.4556 25.9036 69.1243 25.9036 72.336C25.9036 75.4897 28.1904 78.1583 31.6224 78.1583ZM0 43.2319H10.8352V87.4957H0V43.2319ZM131.505 59.9273C131.505 60.9207 131.114 61.8733 130.416 62.5757C129.719 63.2781 128.773 63.6728 127.787 63.6728C126.801 63.6728 125.855 63.2781 125.158 62.5757C124.461 61.8733 124.069 60.9207 124.069 59.9273C124.069 58.9339 124.461 57.9813 125.158 57.2789C125.855 56.5765 126.801 56.1818 127.787 56.1818C128.773 56.1818 129.719 56.5765 130.416 57.2789C131.114 57.9813 131.505 58.9339 131.505 59.9273Z" fill="#113441"/>
<path fill-rule="evenodd" clip-rule="evenodd" d="M101.863 18.0998C112.546 28.861 118.912 43.2145 119.741 58.4103C116.584 54.6891 112.296 52.1217 107.543 51.1066C105.377 41.0226 100.2 31.8473 92.7072 24.8126C85.2146 17.7778 75.7649 13.2202 65.6265 11.7515C55.4882 10.2828 45.1464 11.9734 35.9894 16.5963C26.8325 21.2192 19.2986 28.5531 14.3992 37.6136H2.01904C5.94828 28.3059 12.0854 20.1118 19.8919 13.7504C27.6983 7.38912 36.9354 3.05502 46.7927 1.1285C56.6499 -0.798026 66.8259 -0.258089 76.4276 2.70092C86.0293 5.65994 94.7633 10.9476 101.863 18.0998Z" fill="#FFD43E"/>
<path fill-rule="evenodd" clip-rule="evenodd" d="M93.9748 26.0459C100.793 32.9135 105.503 41.6139 107.543 51.1067C105.977 50.7696 104.345 50.5898 102.668 50.5898C100.4 50.5898 98.2173 50.9157 96.1667 51.5243C93.8803 43.0055 88.8159 35.509 81.788 30.2403C74.7601 24.9717 66.1772 22.2372 57.4197 22.4767C48.6623 22.7162 40.2393 25.9157 33.5056 31.5607C26.7719 37.2058 22.1187 44.9681 20.2946 53.5993C18.9003 54.4075 17.5985 55.3678 16.4127 56.4627V37.6137H14.3973C18.1307 30.7094 23.4109 24.7772 29.8186 20.2882C36.2263 15.7992 43.5849 12.8772 51.3099 11.7543C59.0349 10.6313 66.9134 11.3384 74.3197 13.8193C81.7259 16.3002 88.4558 20.4866 93.9748 26.0459Z" fill="#EE8E1D"/>
<path d="M86.09 57.8448C85.2352 51.7861 82.4395 46.1742 78.1282 41.8626C73.8168 37.551 68.2256 34.7756 62.2047 33.9582C56.1838 33.1409 50.0627 34.3265 44.772 37.3346C39.4814 40.3428 35.3107 45.0089 32.894 50.6236C39.5126 50.9832 45.2946 54.1312 49.0836 58.8842C53.1216 53.8466 59.426 50.6517 66.5578 50.6517C74.1989 50.6517 80.7654 54.0263 84.7161 59.5247C85.1456 58.9422 85.6048 58.3823 86.09 57.8448Z" fill="#971C1C"/>
<path fill-rule="evenodd" clip-rule="evenodd" d="M96.1648 51.5243C92.2951 52.6628 88.8097 54.849 86.0882 57.8448C85.2327 51.7867 82.4369 46.1757 78.1257 41.8647C73.8145 37.5538 68.2237 34.7787 62.2034 33.9615C56.1831 33.1442 50.0626 34.3294 44.7722 37.3369C39.4819 40.3444 35.3111 45.0097 32.894 50.6235C32.4705 50.6008 32.0465 50.5896 31.6224 50.5898C27.4635 50.5898 23.5964 51.6873 20.2946 53.5993C22.1202 44.9693 26.7739 37.2085 33.5076 31.5648C40.2412 25.921 48.6633 22.7222 57.4199 22.4828C66.1764 22.2433 74.7585 24.977 81.7862 30.2444C88.8139 35.5119 93.8789 43.0069 96.1667 51.5243H96.1648Z" fill="#D62727"/>
</g>
<defs>
<clipPath id="clip0_2_16">
<rect width="132" height="103" fill="white"/>
</clipPath>
</defs>
</svg>
