<svg width="132" height="103" viewBox="0 0 132 103" fill="none" xmlns="http://www.w3.org/2000/svg">
<g clip-path="url(#clip0_2_10)">
<path d="M116.909 93.8236C118.746 93.8236 119.741 95.1982 119.741 96.8987V100.125H118.51V97.099C118.51 95.9866 117.965 95.0109 116.822 95.0109C115.718 95.0109 115.16 95.9473 115.16 97.0747V100.125H113.931V97.0728C113.931 95.9492 113.373 95.0109 112.241 95.0109C111.099 95.0109 110.59 95.9848 110.59 97.099V100.125H109.363V96.9118C109.363 95.1982 110.33 93.8218 112.155 93.8218C113.371 93.8218 114.253 94.4473 114.563 95.3986C114.898 94.4473 115.755 93.8236 116.909 93.8236ZM105.039 99.0748C106.167 99.0748 106.788 98.086 106.788 96.9492V93.9978H108.017V97.099C108.017 98.8744 106.95 100.275 105.039 100.275C103.152 100.275 102.082 98.8613 102.082 97.0859V93.9978H103.311V96.9623C103.311 98.086 103.921 99.0748 105.039 99.0748ZM98.617 100.262C97.4866 100.262 96.6184 99.8126 96.1443 98.9006L97.0888 98.3762C97.3993 98.9867 97.8957 99.2133 98.5668 99.2133C99.2621 99.2133 99.7957 98.9249 99.7957 98.3875C99.7957 97.099 96.3079 98.0747 96.3079 95.7357C96.3079 94.6607 97.2505 93.8723 98.5798 93.8723C99.7083 93.8723 100.478 94.3967 100.863 95.1102L99.9203 95.6495C99.66 95.1102 99.1636 94.9229 98.604 94.9229C98.0332 94.9229 97.5369 95.2226 97.5369 95.7095C97.5369 96.9623 101.025 96.0484 101.025 98.3612C101.025 99.5242 99.9091 100.262 98.617 100.262ZM90.1783 102.938H88.9476V97.0485C88.9476 95.2226 90.3512 93.8461 92.1881 93.8461C92.6096 93.8396 93.0282 93.9177 93.4195 94.0758C93.8108 94.2338 94.167 94.4687 94.4674 94.7667C94.7677 95.0647 95.0062 95.4199 95.169 95.8116C95.3318 96.2034 95.4156 96.6238 95.4156 97.0485C95.4156 98.9006 94.0881 100.275 92.2364 100.275C91.4184 100.275 90.6747 99.9119 90.1765 99.3632V102.94L90.1783 102.938ZM92.1881 99.1122C93.3184 99.1122 94.1867 98.1758 94.1867 97.0616C94.1867 95.9361 93.3184 95.0241 92.1881 95.0241C91.0465 95.0241 90.1783 95.9361 90.1783 97.0616C90.1783 98.174 91.0465 99.1122 92.1881 99.1122ZM86.09 93.9978H87.3171V100.125H86.09V93.9978ZM102.668 88.4058C93.2775 88.4058 86.1142 81.1303 86.1142 72.276C86.1142 63.4855 93.2775 56.208 102.668 56.208C112.057 56.208 119.222 63.4855 119.222 72.276C119.222 81.1303 112.059 88.4058 102.668 88.4058ZM102.668 78.1583C106.098 78.1583 108.387 75.4896 108.387 72.3378C108.387 69.1242 106.1 66.4556 102.668 66.4556C99.2361 66.4556 96.9494 69.1242 96.9494 72.336C96.9494 75.4896 99.2361 78.1583 102.668 78.1583ZM65.6542 102.352C58.1897 102.352 52.7703 99.0186 50.002 93.0745L58.9724 88.2242C59.9354 90.2842 61.7425 92.4079 65.4739 92.4079C69.3855 92.4079 71.9753 89.9209 72.2765 85.5555C70.8301 86.829 68.5433 87.7991 65.1132 87.7991C56.7451 87.7991 50.002 81.3119 50.002 72.2161C50.002 63.4237 57.1672 56.2698 66.5577 56.2698C76.1882 56.2698 83.1117 63.0004 83.1117 72.276V84.2821C83.1117 95.1963 75.5858 102.352 65.6542 102.352ZM66.3756 77.5515C69.6272 77.5515 72.0943 75.308 72.0943 71.9726C72.0943 68.6991 69.6272 66.5155 66.3756 66.5155C63.1852 66.5155 60.6586 68.6991 60.6586 71.9726C60.6586 75.308 63.1871 77.5515 66.3756 77.5515ZM31.6224 88.4058C22.2318 88.4058 15.0685 81.1303 15.0685 72.276C15.0685 63.4855 22.2318 56.208 31.6224 56.208C41.0111 56.208 48.1763 63.4855 48.1763 72.276C48.1763 81.1303 41.013 88.4058 31.6224 88.4058ZM31.6224 78.1583C35.0525 78.1583 37.3411 75.4896 37.3411 72.3378C37.3411 69.1242 35.0544 66.4556 31.6224 66.4556C28.1904 66.4556 25.9036 69.1242 25.9036 72.336C25.9036 75.4896 28.1904 78.1583 31.6224 78.1583ZM0 43.2319H10.8352V87.4957H0V43.2319ZM131.505 59.9273C131.505 60.9206 131.114 61.8733 130.416 62.5757C129.719 63.2781 128.773 63.6727 127.787 63.6727C126.801 63.6727 125.855 63.2781 125.158 62.5757C124.461 61.8733 124.069 60.9206 124.069 59.9273C124.069 58.9339 124.461 57.9812 125.158 57.2788C125.855 56.5764 126.801 56.1818 127.787 56.1818C128.773 56.1818 129.719 56.5764 130.416 57.2788C131.114 57.9812 131.505 58.9339 131.505 59.9273Z" fill="#113441"/>
<path fill-rule="evenodd" clip-rule="evenodd" d="M101.863 18.0999C112.546 28.8611 118.912 43.2146 119.741 58.4104C116.584 54.6892 112.296 52.1218 107.543 51.1067C105.377 41.0227 100.2 31.8474 92.7072 24.8126C85.2146 17.7779 75.7649 13.2203 65.6265 11.7516C55.4882 10.2829 45.1464 11.9735 35.9894 16.5964C26.8325 21.2193 19.2986 28.5532 14.3992 37.6137H2.01904C5.94828 28.3059 12.0854 20.1118 19.8919 13.7505C27.6983 7.3892 36.9354 3.05511 46.7927 1.12859C56.6499 -0.797938 66.8259 -0.258002 76.4276 2.70101C86.0293 5.66003 94.7633 10.9477 101.863 18.0999Z" fill="#FFD43E"/>
<path fill-rule="evenodd" clip-rule="evenodd" d="M93.9747 26.0459C100.793 32.9136 105.503 41.6139 107.543 51.1067C105.977 50.7696 104.345 50.5899 102.668 50.5899C100.4 50.5899 98.2173 50.9157 96.1667 51.5243C93.8803 43.0056 88.8158 35.509 81.7879 30.2403C74.76 24.9717 66.1771 22.2372 57.4197 22.4767C48.6623 22.7162 40.2393 25.9157 33.5056 31.5608C26.7718 37.2058 22.1187 44.9681 20.2945 53.5993C18.9003 54.4075 17.5985 55.3678 16.4126 56.4627V37.6137H14.3973C18.1306 30.7094 23.4108 24.7772 29.8185 20.2882C36.2262 15.7993 43.5849 12.8772 51.3099 11.7543C59.0349 10.6313 66.9134 11.3384 74.3196 13.8193C81.7259 16.3002 88.4558 20.4866 93.9747 26.0459Z" fill="#EE8E1D"/>
<path d="M86.09 57.8448C85.2352 51.786 82.4395 46.1742 78.1281 41.8626C73.8168 37.551 68.2256 34.7755 62.2047 33.9582C56.1838 33.1409 50.0627 34.3264 44.772 37.3346C39.4814 40.3427 35.3106 45.0089 32.894 50.6236C39.5126 50.9831 45.2946 54.1312 49.0835 58.8842C53.1216 53.8465 59.426 50.6517 66.5577 50.6517C74.1989 50.6517 80.7654 54.0263 84.7161 59.5246C85.1456 58.9422 85.6048 58.3823 86.09 57.8448Z" fill="#971C1C"/>
<path fill-rule="evenodd" clip-rule="evenodd" d="M96.1648 51.5243C92.2951 52.6628 88.8097 54.849 86.0882 57.8448C85.2327 51.7867 82.4368 46.1757 78.1256 41.8647C73.8144 37.5538 68.2237 34.7788 62.2034 33.9615C56.1831 33.1442 50.0626 34.3294 44.7722 37.3369C39.4819 40.3444 35.3111 45.0097 32.894 50.6236C32.4705 50.6008 32.0465 50.5896 31.6224 50.5899C27.4634 50.5899 23.5964 51.6873 20.2945 53.5993C22.1202 44.9694 26.7739 37.2086 33.5075 31.5648C40.2411 25.921 48.6633 22.7223 57.4199 22.4828C66.1764 22.2433 74.7585 24.9771 81.7862 30.2445C88.8139 35.5119 93.8788 43.0069 96.1667 51.5243H96.1648Z" fill="#D62727"/>
</g>
<defs>
<clipPath id="clip0_2_10">
<rect width="132" height="103" fill="white"/>
</clipPath>
</defs>
</svg>
